<svg width="400" height="400" viewBox="0 0 400 400" fill="none" xmlns="http://www.w3.org/2000/svg">
<g clip-path="url(#clip0)">
<rect width="400" height="400" fill="white"/>
<path d="M200.103 44.138C236.711 44.138 270.335 56.647 297.206 77.453V0H103V77.453C129.871 56.647 163.495 44.138 200.103 44.138Z" fill="#1C77E1"/>
<path d="M200.103 361.931C163.495 361.931 129.871 349.422 103 328.616V512L200.103 414.897L297.206 512V328.616C270.335 349.422 236.711 361.931 200.103 361.931Z" fill="#1C77E1"/>
<circle cx="200" cy="200" r="170" fill="#F0C419"/>
<path d="M200 80L234.807 153.229L309 165.304L256.317 222.316L272.667 298L200 265.007L127.333 298L143.683 222.316L91 165.304L165.193 153.229L200 80Z" fill="#FFE9A9"/>
</g>
<defs>
<clipPath id="clip0">
<rect width="400" height="400" fill="white"/>
</clipPath>
</defs>
</svg>
