<svg width="540" height="80" viewBox="0 0 540 80" fill="none" xmlns="http://www.w3.org/2000/svg">
<rect width="540" height="80" fill="white"/>
<path d="M18.4 20.16H31.72C37.44 20.16 41.76 20.96 44.68 22.56C47.6 24.16 49.06 26.98 49.06 31.02C49.06 33.46 48.48 35.52 47.32 37.2C46.2 38.88 44.58 39.9 42.46 40.26V40.56C43.9 40.84 45.2 41.34 46.36 42.06C47.52 42.78 48.44 43.82 49.12 45.18C49.8 46.54 50.14 48.34 50.14 50.58C50.14 54.46 48.74 57.5 45.94 59.7C43.14 61.9 39.3 63 34.42 63H18.4V20.16ZM27.46 37.14H32.74C35.38 37.14 37.2 36.72 38.2 35.88C39.24 35.04 39.76 33.82 39.76 32.22C39.76 30.58 39.16 29.4 37.96 28.68C36.76 27.96 34.86 27.6 32.26 27.6H27.46V37.14ZM27.46 44.34V55.5H33.4C36.12 55.5 38.02 54.98 39.1 53.94C40.18 52.86 40.72 51.44 40.72 49.68C40.72 48.08 40.16 46.8 39.04 45.84C37.96 44.84 35.98 44.34 33.1 44.34H27.46Z" fill="#1C77E1"/>
<path d="M67.8925 29.64C72.4125 29.64 75.9925 30.94 78.6325 33.54C81.2725 36.1 82.5925 39.76 82.5925 44.52V48.84H61.4725C61.5525 51.36 62.2925 53.34 63.6925 54.78C65.1325 56.22 67.1125 56.94 69.6325 56.94C71.7525 56.94 73.6725 56.74 75.3925 56.34C77.1125 55.9 78.8925 55.24 80.7325 54.36V61.26C79.1325 62.06 77.4325 62.64 75.6325 63C73.8725 63.4 71.7325 63.6 69.2125 63.6C65.9325 63.6 63.0325 63 60.5125 61.8C57.9925 60.56 56.0125 58.7 54.5725 56.22C53.1325 53.74 52.4125 50.62 52.4125 46.86C52.4125 43.02 53.0525 39.84 54.3325 37.32C55.6525 34.76 57.4725 32.84 59.7925 31.56C62.1125 30.28 64.8125 29.64 67.8925 29.64ZM67.9525 36C66.2325 36 64.7925 36.56 63.6325 37.68C62.5125 38.8 61.8525 40.54 61.6525 42.9H74.1925C74.1525 40.9 73.6325 39.26 72.6325 37.98C71.6325 36.66 70.0725 36 67.9525 36Z" fill="#1C77E1"/>
<path d="M109.102 53.28C109.102 56.6 107.922 59.16 105.562 60.96C103.242 62.72 99.7617 63.6 95.1217 63.6C92.8417 63.6 90.8817 63.44 89.2417 63.12C87.6017 62.84 85.9617 62.36 84.3217 61.68V54.3C86.0817 55.1 87.9817 55.76 90.0217 56.28C92.0617 56.8 93.8617 57.06 95.4217 57.06C97.1817 57.06 98.4217 56.8 99.1417 56.28C99.9017 55.76 100.282 55.08 100.282 54.24C100.282 53.68 100.122 53.18 99.8017 52.74C99.5217 52.3 98.8817 51.8 97.8817 51.24C96.8817 50.68 95.3217 49.96 93.2017 49.08C91.1617 48.2 89.4817 47.34 88.1617 46.5C86.8417 45.62 85.8617 44.58 85.2217 43.38C84.5817 42.14 84.2617 40.6 84.2617 38.76C84.2617 35.72 85.4417 33.44 87.8017 31.92C90.1617 30.4 93.3017 29.64 97.2217 29.64C99.2617 29.64 101.202 29.84 103.042 30.24C104.882 30.64 106.782 31.3 108.742 32.22L106.042 38.64C104.442 37.96 102.922 37.4 101.482 36.96C100.042 36.48 98.5817 36.24 97.1017 36.24C94.4617 36.24 93.1417 36.96 93.1417 38.4C93.1417 38.92 93.3017 39.4 93.6217 39.84C93.9817 40.24 94.6417 40.68 95.6017 41.16C96.6017 41.64 98.0617 42.28 99.9817 43.08C101.862 43.84 103.482 44.64 104.842 45.48C106.202 46.28 107.242 47.3 107.962 48.54C108.722 49.74 109.102 51.32 109.102 53.28Z" fill="#1C77E1"/>
<path d="M126.266 56.46C127.266 56.46 128.226 56.36 129.146 56.16C130.066 55.96 130.986 55.72 131.906 55.44V62.1C130.946 62.5 129.746 62.84 128.306 63.12C126.906 63.44 125.366 63.6 123.686 63.6C121.726 63.6 119.966 63.28 118.406 62.64C116.886 62 115.666 60.9 114.746 59.34C113.866 57.74 113.426 55.54 113.426 52.74V36.96H109.166V33.18L114.086 30.18L116.666 23.28H122.366V30.24H131.546V36.96H122.366V52.74C122.366 53.98 122.726 54.92 123.446 55.56C124.166 56.16 125.106 56.46 126.266 56.46Z" fill="#1C77E1"/>
<path d="M186.467 41.52C186.467 45.96 185.727 49.84 184.247 53.16C182.807 56.44 180.588 59 177.588 60.84C174.588 62.68 170.748 63.6 166.068 63.6C161.428 63.6 157.588 62.68 154.548 60.84C151.548 59 149.307 56.42 147.827 53.1C146.387 49.78 145.667 45.9 145.667 41.46C145.667 37.02 146.387 33.16 147.827 29.88C149.307 26.6 151.548 24.06 154.548 22.26C157.588 20.42 161.448 19.5 166.128 19.5C170.768 19.5 174.588 20.42 177.588 22.26C180.588 24.06 182.807 26.62 184.247 29.94C185.727 33.22 186.467 37.08 186.467 41.52ZM155.208 41.52C155.208 46 156.068 49.54 157.788 52.14C159.508 54.7 162.268 55.98 166.068 55.98C169.948 55.98 172.728 54.7 174.408 52.14C176.088 49.54 176.928 46 176.928 41.52C176.928 37 176.088 33.46 174.408 30.9C172.728 28.34 169.968 27.06 166.128 27.06C162.288 27.06 159.508 28.34 157.788 30.9C156.068 33.46 155.208 37 155.208 41.52Z" fill="#1C77E1"/>
<path d="M209.621 29.64C213.141 29.64 215.961 30.6 218.081 32.52C220.201 34.4 221.261 37.44 221.261 41.64V63H212.321V43.86C212.321 41.5 211.901 39.74 211.061 38.58C210.221 37.38 208.881 36.78 207.041 36.78C204.321 36.78 202.461 37.72 201.461 39.6C200.461 41.44 199.961 44.1 199.961 47.58V63H191.021V30.24H197.861L199.061 34.44H199.541C200.581 32.76 202.001 31.54 203.801 30.78C205.641 30.02 207.581 29.64 209.621 29.64Z" fill="#1C77E1"/>
<path d="M235.795 63H226.855V17.4H235.795V63Z" fill="#1C77E1"/>
<path d="M246.036 17.4C247.356 17.4 248.496 17.72 249.456 18.36C250.416 18.96 250.896 20.1 250.896 21.78C250.896 23.42 250.416 24.56 249.456 25.2C248.496 25.84 247.356 26.16 246.036 26.16C244.676 26.16 243.516 25.84 242.556 25.2C241.636 24.56 241.176 23.42 241.176 21.78C241.176 20.1 241.636 18.96 242.556 18.36C243.516 17.72 244.676 17.4 246.036 17.4ZM250.476 30.24V63H241.536V30.24H250.476Z" fill="#1C77E1"/>
<path d="M274.818 29.64C278.338 29.64 281.157 30.6 283.277 32.52C285.397 34.4 286.458 37.44 286.458 41.64V63H277.518V43.86C277.518 41.5 277.098 39.74 276.258 38.58C275.418 37.38 274.078 36.78 272.238 36.78C269.518 36.78 267.658 37.72 266.658 39.6C265.658 41.44 265.158 44.1 265.158 47.58V63H256.217V30.24H263.058L264.258 34.44H264.738C265.778 32.76 267.198 31.54 268.998 30.78C270.838 30.02 272.778 29.64 274.818 29.64Z" fill="#1C77E1"/>
<path d="M305.551 29.64C310.071 29.64 313.651 30.94 316.291 33.54C318.931 36.1 320.251 39.76 320.251 44.52V48.84H299.131C299.211 51.36 299.951 53.34 301.351 54.78C302.791 56.22 304.771 56.94 307.291 56.94C309.411 56.94 311.331 56.74 313.051 56.34C314.771 55.9 316.551 55.24 318.391 54.36V61.26C316.791 62.06 315.091 62.64 313.291 63C311.531 63.4 309.391 63.6 306.871 63.6C303.591 63.6 300.691 63 298.171 61.8C295.651 60.56 293.671 58.7 292.231 56.22C290.791 53.74 290.071 50.62 290.071 46.86C290.071 43.02 290.711 39.84 291.991 37.32C293.311 34.76 295.131 32.84 297.451 31.56C299.771 30.28 302.471 29.64 305.551 29.64ZM305.611 36C303.891 36 302.451 36.56 301.291 37.68C300.171 38.8 299.511 40.54 299.311 42.9H311.851C311.811 40.9 311.291 39.26 310.291 37.98C309.291 36.66 307.731 36 305.611 36Z" fill="#1C77E1"/>
<path d="M332.106 75.6C330.946 75.6 329.926 75.52 329.046 75.36C328.166 75.24 327.406 75.1 326.766 74.94V67.38C327.406 67.54 328.086 67.68 328.806 67.8C329.486 67.92 330.226 67.98 331.026 67.98C332.066 67.98 333.006 67.78 333.846 67.38C334.726 66.98 335.406 66.22 335.886 65.1C336.366 63.98 336.606 62.38 336.606 60.3V20.16H345.666V60.24C345.666 63.92 345.086 66.88 343.926 69.12C342.806 71.4 341.226 73.04 339.186 74.04C337.146 75.08 334.786 75.6 332.106 75.6Z" fill="#1C77E1"/>
<path d="M381.91 46.56C381.91 52 380.47 56.2 377.59 59.16C374.75 62.12 370.87 63.6 365.95 63.6C362.91 63.6 360.19 62.94 357.79 61.62C355.43 60.3 353.57 58.38 352.21 55.86C350.85 53.3 350.17 50.2 350.17 46.56C350.17 41.12 351.59 36.94 354.43 34.02C357.27 31.1 361.17 29.64 366.13 29.64C369.21 29.64 371.93 30.3 374.29 31.62C376.65 32.94 378.51 34.86 379.87 37.38C381.23 39.86 381.91 42.92 381.91 46.56ZM359.29 46.56C359.29 49.8 359.81 52.26 360.85 53.94C361.93 55.58 363.67 56.4 366.07 56.4C368.43 56.4 370.13 55.58 371.17 53.94C372.25 52.26 372.79 49.8 372.79 46.56C372.79 43.32 372.25 40.9 371.17 39.3C370.13 37.66 368.41 36.84 366.01 36.84C363.65 36.84 361.93 37.66 360.85 39.3C359.81 40.9 359.29 43.32 359.29 46.56Z" fill="#1C77E1"/>
<path d="M415.758 30.24V63H408.918L407.718 58.8H407.238C406.198 60.48 404.758 61.7 402.918 62.46C401.118 63.22 399.198 63.6 397.158 63.6C393.638 63.6 390.818 62.66 388.698 60.78C386.578 58.86 385.518 55.8 385.518 51.6V30.24H394.458V49.38C394.458 51.7 394.878 53.46 395.718 54.66C396.558 55.86 397.898 56.46 399.738 56.46C402.458 56.46 404.318 55.54 405.318 53.7C406.318 51.82 406.818 49.14 406.818 45.66V30.24H415.758Z" fill="#1C77E1"/>
<path d="M439.832 29.64C440.272 29.64 440.792 29.66 441.392 29.7C441.992 29.74 442.472 29.8 442.832 29.88L442.172 38.28C441.892 38.2 441.472 38.14 440.912 38.1C440.392 38.02 439.932 37.98 439.532 37.98C438.012 37.98 436.552 38.26 435.152 38.82C433.752 39.34 432.612 40.2 431.732 41.4C430.892 42.6 430.472 44.24 430.472 46.32V63H421.532V30.24H428.312L429.632 35.76H430.052C431.012 34.08 432.332 32.64 434.012 31.44C435.692 30.24 437.632 29.64 439.832 29.64Z" fill="#1C77E1"/>
<path d="M463.778 29.64C467.298 29.64 470.118 30.6 472.238 32.52C474.358 34.4 475.418 37.44 475.418 41.64V63H466.478V43.86C466.478 41.5 466.058 39.74 465.218 38.58C464.378 37.38 463.038 36.78 461.198 36.78C458.478 36.78 456.618 37.72 455.618 39.6C454.618 41.44 454.118 44.1 454.118 47.58V63H445.178V30.24H452.018L453.218 34.44H453.698C454.738 32.76 456.158 31.54 457.958 30.78C459.798 30.02 461.738 29.64 463.778 29.64Z" fill="#1C77E1"/>
<path d="M494.451 29.58C498.851 29.58 502.211 30.54 504.531 32.46C506.891 34.34 508.071 37.24 508.071 41.16V63H501.831L500.091 58.56H499.851C498.451 60.32 496.971 61.6 495.411 62.4C493.851 63.2 491.711 63.6 488.991 63.6C486.071 63.6 483.651 62.76 481.731 61.08C479.811 59.36 478.851 56.74 478.851 53.22C478.851 49.74 480.071 47.18 482.511 45.54C484.951 43.86 488.611 42.94 493.491 42.78L499.191 42.6V41.16C499.191 39.44 498.731 38.18 497.811 37.38C496.931 36.58 495.691 36.18 494.091 36.18C492.491 36.18 490.931 36.42 489.411 36.9C487.891 37.34 486.371 37.9 484.851 38.58L481.911 32.52C483.671 31.6 485.611 30.88 487.731 30.36C489.891 29.84 492.131 29.58 494.451 29.58ZM499.191 47.82L495.711 47.94C492.831 48.02 490.831 48.54 489.711 49.5C488.591 50.46 488.031 51.72 488.031 53.28C488.031 54.64 488.431 55.62 489.231 56.22C490.031 56.78 491.071 57.06 492.351 57.06C494.271 57.06 495.891 56.5 497.211 55.38C498.531 54.22 499.191 52.6 499.191 50.52V47.82Z" fill="#1C77E1"/>
<path d="M522.562 63H513.622V17.4H522.562V63Z" fill="#1C77E1"/>
</svg>
